# xmcd
#
# Track frame offsets:
# 150
# 12117
# 23952
# 35065
# 46965
# 55290
# 63335
# 75352
#
# Disc length: 1144 seconds
#
#
# Revision: 1
# Processed by: cddbd v1.5.1PL2 Copyright (c) Steve Scherf et al.
# Submitted via: FreeRIP 2.941 
#
DISCID=5c047608
DTITLE=Serge Gainsbourg - No. 4
DYEAR=1962
DGENRE=Jazz
TTITLE0=Les Goemons
TTITLE1=Black Trombone
TTITLE2=Baudelaire
TTITLE3=Intoxicated Man
TTITLE4=Quand tu t'y mets
TTITLE5=Les Cigarillos
TTITLE6=Requiem Pour Un Twister
TTITLE7=Ce Grand Mechant Vous
EXTD=
EXTT0=
EXTT1=
EXTT2=
EXTT3=
EXTT4=
EXTT5=
EXTT6=
EXTT7=
PLAYORDER=
